<svg width="83" height="81" viewBox="0 0 83 81" fill="none" xmlns="http://www.w3.org/2000/svg">
<circle cx="60.5" cy="22.5" r="22.5" fill="#FF5353"/>
<path d="M38 43V14.5" stroke="black" stroke-width="2" stroke-linecap="round" stroke-linejoin="round"/>
<path d="M62.6817 28.75L13.3183 57.25" stroke="black" stroke-width="2" stroke-linecap="round" stroke-linejoin="round"/>
<path d="M9.97518 48.2103C8.74123 41.5324 9.92845 34.6334 13.3236 28.7521C16.7188 22.8709 22.0996 18.3927 28.4995 16.1218V37.5153L9.97518 48.2103Z" stroke="black" stroke-width="2" stroke-linecap="round" stroke-linejoin="round"/>
<path d="M38 14.5C42.9933 14.5009 47.8986 15.8137 52.2249 18.3068C56.5512 20.8 60.1466 24.386 62.6509 28.7058C65.1553 33.0256 66.4808 37.9276 66.4946 42.9208C66.5085 47.9141 65.2103 52.8233 62.73 57.157C60.2496 61.4906 56.6743 65.0966 52.3619 67.6137C48.0495 70.1309 43.1515 71.4709 38.1583 71.4995C33.1652 71.5282 28.2521 70.2445 23.9111 67.777C19.5701 65.3096 15.9536 61.7449 13.4237 57.44" stroke="black" stroke-width="2" stroke-linecap="round" stroke-linejoin="round"/>
</svg>
